STARTFONT 2.1
COMMENT $Id: g2s8x20.bdf,v 1.1 1994/08/30 15:35:05 pierre Exp $
FONT -Lectra-Minitel-Medium-R-Normal--20-200-75-75-C-80-ISO2022-2S
SIZE 20 75 75
FONTBOUNDINGBOX 8 20 0 -2
STARTPROPERTIES 19
FONTNAME_REGISTRY ""
FOUNDRY "Lectra"
FAMILY_NAME "Minitel"
WEIGHT_NAME "Medium"
SLANT "R"
SETWIDTH_NAME "Normal"
ADD_STYLE_NAME ""
PIXEL_SIZE 20
POINT_SIZE 200
RESOLUTION_X 75
RESOLUTION_Y 75
SPACING "C"
AVERAGE_WIDTH 80
CHARSET_REGISTRY "ISO2022-2S"
CHARSET_ENCODING "1"
FONT_ASCENT 18
FONT_DESCENT 2
DEFAULT_CHAR 0
COPYRIGHT "Copyright 1991 Lectra-Systemes"
ENDPROPERTIES
CHARS 20
STARTCHAR C035
ENCODING 35
SWIDTH 666 0
DWIDTH 8 0
BBX 8 20 0 -2
BITMAP
00
00
30
30
4C
4C
44
44
20
20
20
20
70
70
22
22
A4
A4
78
FF
ENDCHAR
STARTCHAR C036
ENCODING 36
SWIDTH 666 0
DWIDTH 8 0
BBX 8 20 0 -2
BITMAP
00
00
08
08
1E
1E
28
28
1C
1C
0A
0A
3C
3C
08
08
00
00
00
FF
ENDCHAR
STARTCHAR C038
ENCODING 38
SWIDTH 666 0
DWIDTH 8 0
BBX 8 20 0 -2
BITMAP
24
24
24
24
7E
7E
24
24
24
24
7E
7E
24
24
24
24
00
00
00
FF
ENDCHAR
STARTCHAR C044
ENCODING 44
SWIDTH 666 0
DWIDTH 8 0
BBX 8 20 0 -2
BITMAP
00
00
00
00
00
00
20
20
60
60
FF
FF
60
60
20
20
00
00
00
FF
ENDCHAR
STARTCHAR C045
ENCODING 45
SWIDTH 666 0
DWIDTH 8 0
BBX 8 20 0 -2
BITMAP
00
00
08
08
1C
1C
3E
3E
08
08
08
08
08
08
08
08
08
08
08
FF
ENDCHAR
STARTCHAR C046
ENCODING 46
SWIDTH 666 0
DWIDTH 8 0
BBX 8 20 0 -2
BITMAP
00
00
00
00
00
00
04
04
06
06
FF
FF
06
06
04
04
00
00
00
FF
ENDCHAR
STARTCHAR C047
ENCODING 47
SWIDTH 666 0
DWIDTH 8 0
BBX 8 20 0 -2
BITMAP
00
00
08
08
08
08
08
08
08
08
08
08
08
08
3E
3E
1C
1C
08
FF
ENDCHAR
STARTCHAR C048
ENCODING 48
SWIDTH 666 0
DWIDTH 8 0
BBX 8 20 0 -2
BITMAP
60
60
90
90
90
90
60
60
00
00
00
00
00
00
00
00
00
00
00
FF
ENDCHAR
STARTCHAR C049
ENCODING 49
SWIDTH 666 0
DWIDTH 8 0
BBX 8 20 0 -2
BITMAP
00
00
00
00
20
20
20
20
F8
F8
20
20
20
20
F8
F8
00
00
00
FF
ENDCHAR
STARTCHAR C056
ENCODING 56
SWIDTH 666 0
DWIDTH 8 0
BBX 8 20 0 -2
BITMAP
00
00
00
00
08
08
00
00
7F
7F
00
00
08
08
00
00
00
00
00
FF
ENDCHAR
STARTCHAR C060
ENCODING 60
SWIDTH 666 0
DWIDTH 8 0
BBX 8 20 0 -2
BITMAP
00
00
10
10
D1
D1
D3
D3
57
57
55
55
57
57
51
51
51
51
10
FF
ENDCHAR
STARTCHAR C061
ENCODING 61
SWIDTH 666 0
DWIDTH 8 0
BBX 8 20 0 -2
BITMAP
00
00
10
10
D7
D7
D1
D1
51
51
57
57
54
54
54
54
57
57
10
FF
ENDCHAR
STARTCHAR C062
ENCODING 62
SWIDTH 666 0
DWIDTH 8 0
BBX 8 20 0 -2
BITMAP
00
00
08
08
E9
E9
2B
2B
4D
4D
8F
8F
49
49
29
29
E9
E9
08
FF
ENDCHAR
STARTCHAR C065
ENCODING 65
SWIDTH 666 0
DWIDTH 8 0
BBX 8 20 0 -2
BITMAP
00
00
30
30
18
18
00
00
00
00
00
00
00
00
00
00
00
00
00
FF
ENDCHAR
STARTCHAR C066
ENCODING 66
SWIDTH 666 0
DWIDTH 8 0
BBX 8 20 0 -2
BITMAP
00
00
06
06
0C
0C
00
00
00
00
00
00
00
00
00
00
00
00
00
FF
ENDCHAR
STARTCHAR C067
ENCODING 67
SWIDTH 666 0
DWIDTH 8 0
BBX 8 20 0 -2
BITMAP
00
00
1C
1C
36
36
00
00
00
00
00
00
00
00
00
00
00
00
00
FF
ENDCHAR
STARTCHAR C072
ENCODING 72
SWIDTH 666 0
DWIDTH 8 0
BBX 8 20 0 -2
BITMAP
00
00
36
36
00
00
00
00
00
00
00
00
00
00
00
00
00
00
00
FF
ENDCHAR
STARTCHAR C075
ENCODING 75
SWIDTH 666 0
DWIDTH 8 0
BBX 8 20 0 -2
BITMAP
00
00
00
00
00
00
00
00
00
00
00
00
00
00
00
00
18
18
38
FF
ENDCHAR
STARTCHAR C106
ENCODING 106
SWIDTH 666 0
DWIDTH 8 0
BBX 8 20 0 -2
BITMAP
00
00
3F
3F
48
48
88
88
8E
8E
88
88
48
48
3F
3F
00
00
00
FF
ENDCHAR
STARTCHAR C122
ENCODING 122
SWIDTH 666 0
DWIDTH 8 0
BBX 8 20 0 -2
BITMAP
00
00
00
00
00
00
77
77
89
89
8F
8F
88
88
77
77
00
00
00
FF
ENDCHAR
ENDFONT
